<svg width="1005" height="251" viewBox="0 0 1005 251" fill="none" xmlns="http://www.w3.org/2000/svg">
<path d="M351.557 51.0663C535.879 -17.5187 522.113 122.36 478.497 189.729" stroke="#F75F8A" stroke-width="54"/>
<path d="M553.056 48.6233C617.555 24.1217 700.074 26.9144 703.055 72.6216C706.036 118.329 655.055 132.623 555.555 177.123C555.555 177.123 706.055 110.623 772.795 183.428" stroke="#F75F8A" stroke-width="54"/>
<path d="M222.666 7.62109C215.148 42.7291 219.005 74.3963 232.34 98.4521C245.482 122.161 269.356 141.319 307.935 149.162L297.177 202.08C244.755 191.423 206.689 163.559 185.11 124.632C181.628 118.35 178.62 111.857 176.063 105.191C168.505 128.837 156.954 149.013 141.674 165.172C105.316 203.621 52.9077 214.006 0 199.683L14.1113 147.56C51.7034 157.736 82.295 149.371 102.438 128.07C122.451 106.905 136.723 68.1323 131.51 7.62109H222.666Z" fill="#F75F8A"/>
<path d="M312.072 7.62109C310.862 10.5314 309.81 13.3485 308.916 16.0645C303.527 32.4333 304.557 42.5574 306.736 47.6289C308.239 51.1258 311.721 55.8299 323.865 58.0332L319.046 84.6006L314.227 111.167C288.077 106.423 267.18 92.3495 257.124 68.9492C248.88 49.7652 249.652 28.212 255.113 7.62109H312.072Z" fill="#F75F8A"/>
<path d="M1004.71 58.5215C965.322 66.9624 942.129 85.0531 929.413 107.71C916.296 131.082 912.091 163.327 919.093 203.621H833.008L831.208 203.218C839.774 165.004 834.847 132.347 820.918 108.324C807.204 84.6724 783.333 66.8374 748.461 60.1387L753.554 33.623L758.647 7.10742C807.531 16.4974 845.411 42.9125 867.633 81.2383C870.398 86.0067 872.896 90.9191 875.132 95.96C877.256 90.9438 879.649 86.0468 882.323 81.2822C903.983 42.6891 941.789 16.7798 993.398 5.7207L1004.71 58.5215Z" fill="#F75F8A"/>
</svg>
